<?xml version="1.0" encoding="utf-8"?>
<!-- Generator: Adobe Illustrator 21.0.0, SVG Export Plug-In . SVG Version: 6.00 Build 0)  -->
<svg version="1.1" id="Layer_1" xmlns="http://www.w3.org/2000/svg" xmlns:xlink="http://www.w3.org/1999/xlink" x="0px" y="0px"
	 viewBox="0 0 500 500" style="enable-background:new 0 0 500 500;" xml:space="preserve">
<style type="text/css">
	.st0{fill:#F1F1F1;}
	.st1{fill:#395D63;}
	.st2{fill:#53C977;}
	.st3{fill:#368ADD;}
	.st4{fill:#FFA742;}
	.st5{fill:#FFFFFF;}
</style>
<rect class="st0" width="500" height="500"/>
<path id="XMLID_311_" class="st1" d="M250,374.3c-7.2,0-14.6-0.5-21.8-1.3l-3.1-0.4l-10.7-23.5l-2.3-0.6c-6.5-1.6-13-3.7-19.2-6.2
	l-2.2-0.9l-22.4,12.7l-2.7-1.5c-6.4-3.5-12.5-7.4-18.4-11.7c-5.9-4.3-11.5-8.9-16.8-13.9l-2.3-2.1l5.2-25.3l-1.5-1.8
	c-4.3-5.2-8.3-10.6-11.9-16.3l-1.3-2L93,276.6l-1.3-2.8c-3.1-6.6-5.8-13.4-8-20.3c-2.2-6.9-4.1-14-5.4-21.1l-0.6-3.1l19-17.4
	l-0.2-2.4c-0.2-3.4-0.3-6.8-0.3-10.1s0.1-6.7,0.3-10.1l0.2-2.4l-19-17.4l0.6-3.1c1.4-7.1,3.2-14.2,5.4-21.1c2.2-6.9,4.9-13.7,8-20.3
	l1.3-2.8l25.6-2.9l1.3-2c3.6-5.6,7.6-11.1,11.9-16.3l1.5-1.8l-5.2-25.3l2.3-2.1c5.3-5,11-9.6,16.8-13.9c5.9-4.3,12-8.2,18.4-11.7
	l2.7-1.5l22.4,12.7l2.2-0.9c6.2-2.5,12.7-4.6,19.2-6.2l2.3-0.6l10.7-23.5l3.1-0.4c7.2-0.9,14.5-1.3,21.8-1.3
	c7.2,0,14.6,0.5,21.8,1.3l3.1,0.4l10.7,23.5l2.3,0.6c6.5,1.6,13,3.7,19.2,6.2l2.2,0.9l22.4-12.7l2.7,1.5c6.4,3.5,12.5,7.4,18.4,11.7
	s11.5,8.9,16.8,13.9l2.3,2.1l-5.2,25.3l1.5,1.8c4.3,5.1,8.3,10.6,11.9,16.3l1.3,2l25.6,2.9l1.3,2.8c3.1,6.6,5.8,13.4,8,20.3
	s4.1,14,5.4,21.1l0.6,3.1l-19,17.4l0.2,2.4c0.2,3.4,0.3,6.8,0.3,10.1s-0.1,6.7-0.3,10.1l-0.2,2.4l19,17.4l-0.6,3.1
	c-1.4,7.1-3.2,14.2-5.4,21.1c-2.2,6.9-4.9,13.7-8,20.3l-1.3,2.8l-25.6,2.9l-1.3,2c-3.6,5.7-7.6,11.1-11.9,16.3l-1.5,1.8l5.2,25.3
	l-2.3,2.1c-5.3,5-11,9.6-16.8,13.9c-5.9,4.3-12,8.2-18.4,11.7l-2.7,1.5l-22.4-12.7l-2.2,0.9c-6.2,2.5-12.7,4.6-19.2,6.2l-2.3,0.6
	l-10.7,23.5l-3.1,0.4C264.6,373.9,257.2,374.3,250,374.3z M250,77.7c-67.1,0-121.7,54.6-121.7,121.7S182.9,321.1,250,321.1
	s121.7-54.6,121.7-121.7S317.1,77.7,250,77.7z"/>
<path id="XMLID_105_" class="st2" d="M177,217h20.3v-14H231v14h20.3v66.2h-71.4c-1-0.8-1.9-1.7-3-2.6L177,217L177,217z"/>
<path id="XMLID_104_" class="st3" d="M254.4,217h20.3v-14h33.8v14h17.2v61.1c-1.9,1.8-3.8,3.6-5.8,5.2h-65.4V217H254.4z"/>
<path id="XMLID_103_" class="st4" d="M183.8,286.4H316c-18.3,14-41.2,22.3-66.1,22.3S202.2,300.4,183.8,286.4"/>
<polygon id="XMLID_102_" class="st3" points="180.9,121.7 201,123 201.9,109 235.7,111.2 234.8,125.1 275.1,127.6 276.1,113.8 
	309.9,115.8 308.9,129.8 283.1,128.2 329.1,131.2 324.9,197.3 176.6,187.8 "/>
<path id="XMLID_101_" class="st5" d="M221.6,140.5c9.3,0.7,16.4,8.7,15.8,18c-0.7,9.3-8.7,16.4-18,15.8c-9.3-0.7-16.4-8.7-15.8-18
	C204.3,147,212.4,139.9,221.6,140.5"/>
<path id="XMLID_100_" class="st4" d="M221.1,150.1c4.1,0.2,7.1,3.7,6.9,7.8c-0.2,4.1-3.7,7.1-7.8,6.9c-4.1-0.2-7.1-3.7-6.9-7.8
	C213.5,152.9,217.1,149.8,221.1,150.1"/>
<path id="XMLID_99_" class="st5" d="M286.3,144.6c9.3,0.7,16.4,8.7,15.8,18c-0.7,9.3-8.7,16.4-18,15.8c-9.3-0.7-16.4-8.7-15.8-18
	C269,151,277,144,286.3,144.6"/>
<path id="XMLID_98_" class="st4" d="M285.7,154.2c4.1,0.2,7.1,3.7,6.9,7.8s-3.7,7.1-7.8,6.9c-4.1-0.2-7.1-3.7-6.9-7.8
	S281.6,154,285.7,154.2"/>
<rect id="XMLID_155_" x="110.4" y="171.5" transform="matrix(0.7071 -0.7071 0.7071 0.7071 -112.6509 154.8378)" class="st0" width="40.4" height="83.8"/>
<rect id="XMLID_97_" x="113.4" y="174.5" transform="matrix(0.7071 -0.7071 0.7071 0.7071 -112.651 154.8377)" class="st3" width="34.4" height="77.8"/>
<path id="XMLID_154_" class="st0" d="M78.8,192.6c-17.1,0-31.1-13.9-31.1-31.1v-3h19.2v3c0,6.5,5.3,11.8,11.8,11.8
	s11.8-5.3,11.8-11.8c0-6.6-5.1-11.8-11.7-11.8h-3v-19.3h3c17.1,0,31.1,13.9,31.1,31.1C109.8,178.7,95.9,192.6,78.8,192.6z"/>
<path id="XMLID_96_" class="st3" d="M78.8,133.5c15.5,0,28.1,12.6,28.1,28.1s-12.6,28.1-28.1,28.1S50.7,177,50.7,161.6h13.2
	c0,8.2,6.6,14.8,14.8,14.8s14.8-6.6,14.8-14.8s-6.4-14.8-14.7-14.8C78.8,146.8,78.8,133.5,78.8,133.5z"/>
<rect id="XMLID_153_" x="349.3" y="204.2" transform="matrix(0.7071 -0.7071 0.7071 0.7071 -65.7819 333.3192)" class="st0" width="40.4" height="83.8"/>
<rect id="XMLID_95_" x="352.3" y="207.2" transform="matrix(0.7071 -0.7071 0.7071 0.7071 -65.7819 333.3191)" class="st4" width="34.4" height="77.8"/>
<path id="XMLID_108_" class="st0" d="M421.2,328.9c-17.1,0-31.1-13.9-31.1-31.1c0-17.1,13.9-31.1,31.1-31.1
	c17.1,0,31.1,13.9,31.1,31.1v3h-19.2v-3c0-6.5-5.3-11.8-11.8-11.8s-11.8,5.3-11.8,11.8s5.3,11.8,11.8,11.8h3v19.3L421.2,328.9
	L421.2,328.9z"/>
<path id="XMLID_94_" class="st4" d="M421.2,326c-15.5,0-28.1-12.6-28.1-28.1s12.6-28.1,28.1-28.1s28.1,12.6,28.1,28.1h-13.2
	c0-8.2-6.6-14.8-14.8-14.8c-8.2,0-14.8,6.6-14.8,14.8s6.6,14.8,14.8,14.8V326H421.2z"/>
<g id="XMLID_355_">
	<g id="XMLID_356_">
		<path id="XMLID_395_" class="st1" d="M130.3,396.8L120,467.2h-10.2l-6.3-39.8c-0.1-1.5-0.2-3.6-0.4-6.4c0,1.5-0.2,3.6-0.4,6.4
			l-6.3,39.8H86.1l-10.3-70.4h10.7l5.5,41.7c0.1,1.5,0.2,3.6,0.4,6.4c0-1.5,0.2-3.6,0.5-6.4l6-41.7h8.7l6,41.7
			c0.1,1.5,0.2,3.6,0.5,6.4c0-1.5,0.2-3.6,0.4-6.4l5.5-41.7L130.3,396.8L130.3,396.8z"/>
		<path id="XMLID_365_" class="st1" d="M170.1,434.9c0,4.4-2.2,6.6-6.4,6.6h-17v25.4h-10.5v-70.3h27.5c4.3,0,6.4,2.2,6.4,6.5V434.9z
			 M159.5,432.6v-26.9h-12.8v26.8L159.5,432.6L159.5,432.6z"/>
		<path id="XMLID_364_" class="st1" d="M231.9,467h-10.7v-31.5H207V467h-10.5v-70.3H207v29.1h14.2v-29h10.7V467z"/>
		<path id="XMLID_363_" class="st1" d="M269.4,467h-29.1v-70.3h28.9v9.3h-18.3v20.6h15.8v9.1h-15.8v22h18.6L269.4,467L269.4,467z"/>
		<path id="XMLID_362_" class="st1" d="M304.2,467h-27.6v-70.3h10.5v60.9h17.1V467z"/>
		<path id="XMLID_359_" class="st1" d="M344.4,434.9c0,4.4-2.2,6.6-6.4,6.6h-17v25.4h-10.5v-70.3H338c4.3,0,6.4,2.2,6.4,6.5V434.9
			L344.4,434.9z M333.8,432.6v-26.9H321v26.8L333.8,432.6L333.8,432.6z"/>
		<path id="XMLID_358_" class="st1" d="M381,467h-29.1v-70.3h28.9v9.3h-18.4v20.6h15.8v9.1h-15.8v22H381V467L381,467z"/>
		<path id="XMLID_357_" class="st1" d="M424.2,467h-11l-11.6-32.6v-6.3H412v-22.3h-13.2v61.3h-10.5v-70.3h27.9
			c4.3,0,6.3,2.2,6.3,6.5v25.6c0,2.9-1,4.9-3,5.7c-1.1,0.5-3.4,0.6-6.8,0.6L424.2,467z"/>
	</g>
</g>
</svg>
