<?xml version="1.0" encoding="utf-8"?>
<!-- Generator: Adobe Illustrator 21.0.0, SVG Export Plug-In . SVG Version: 6.00 Build 0)  -->
<svg version="1.1" id="Layer_1" xmlns="http://www.w3.org/2000/svg" xmlns:xlink="http://www.w3.org/1999/xlink" x="0px" y="0px"
	 viewBox="0 0 150 150" style="enable-background:new 0 0 150 150;" xml:space="preserve">
<style type="text/css">
	.st0{fill:#F7F7F7;}
	.st1{fill:#395D63;}
	.st2{fill:#53C977;}
	.st3{fill:#368ADD;}
	.st4{fill:#FFA742;}
	.st5{fill:#FFFFFF;}
	.st6{fill:#F1F1F1;}
</style>
<rect class="st0" width="150" height="150"/>
<g>
	<path id="XMLID_311_" class="st1" d="M75,139.8c-2.7,0-5.4-0.2-8.1-0.5l-1.1-0.1l-4-8.7l-0.9-0.2c-2.4-0.6-4.8-1.4-7.1-2.3
		l-0.8-0.3l-8.3,4.7l-1-0.6c-2.4-1.3-4.6-2.7-6.8-4.3c-2.2-1.6-4.3-3.3-6.2-5.2l-0.9-0.8l1.9-9.4l-0.6-0.7c-1.6-1.9-3.1-3.9-4.4-6
		l-0.5-0.7l-9.5-1.1l-0.5-1c-1.1-2.4-2.2-5-3-7.5s-1.5-5.2-2-7.8l-0.2-1.1l7-6.5l-0.1-0.9C18,77.5,18,76.2,18,75s0-2.5,0.1-3.7
		l0.1-0.9l-7-6.5l0.2-1.1c0.5-2.6,1.2-5.3,2-7.8c0.8-2.6,1.8-5.1,3-7.5l0.5-1l9.5-1.1l0.5-0.7c1.3-2.1,2.8-4.1,4.4-6l0.6-0.7
		l-1.9-9.4l0.9-0.8c2-1.9,4.1-3.6,6.2-5.2c2.2-1.6,4.4-3,6.8-4.3l1-0.6l8.3,4.7l0.8-0.3c2.3-0.9,4.7-1.7,7.1-2.3l0.9-0.2l4-8.7
		l1.1-0.1c2.7-0.3,5.4-0.5,8.1-0.5c2.7,0,5.4,0.2,8.1,0.5l1.1,0.1l4,8.7l0.9,0.2c2.4,0.6,4.8,1.4,7.1,2.3l0.8,0.3l8.3-4.7l1,0.6
		c2.4,1.3,4.6,2.7,6.8,4.3c2.2,1.6,4.3,3.3,6.2,5.2l0.9,0.8l-1.9,9.4l0.6,0.7c1.6,1.9,3.1,3.9,4.4,6l0.5,0.7l9.5,1.1l0.5,1
		c1.1,2.4,2.2,5,3,7.5c0.8,2.6,1.5,5.2,2,7.8l0.2,1.1l-7,6.5l0.1,0.9c0.1,1.3,0.1,2.5,0.1,3.7s0,2.5-0.1,3.7l-0.1,0.9l7,6.5
		l-0.2,1.1c-0.5,2.6-1.2,5.3-2,7.8s-1.8,5.1-3,7.5l-0.5,1l-9.5,1.1l-0.5,0.7c-1.3,2.1-2.8,4.1-4.4,6l-0.6,0.7l1.9,9.4l-0.9,0.8
		c-2,1.9-4.1,3.6-6.2,5.2c-2.2,1.6-4.4,3-6.8,4.3l-1,0.6l-8.3-4.7l-0.8,0.3c-2.3,0.9-4.7,1.7-7.1,2.3l-0.9,0.2l-4,8.7l-1.1,0.1
		C80.4,139.7,77.7,139.8,75,139.8z M75,29.9c-24.9,0-45.1,20.2-45.1,45.1s20.2,45.1,45.1,45.1s45.1-20.2,45.1-45.1
		S99.9,29.9,75,29.9z"/>
	<path id="XMLID_105_" class="st2" d="M47.9,81.5h7.5v-5.2H68v5.2h7.5v24.5H49c-0.4-0.3-0.7-0.6-1.1-1L47.9,81.5L47.9,81.5z"/>
	<path id="XMLID_104_" class="st3" d="M76.6,81.5h7.5v-5.2h12.5v5.2h6.4v22.7c-0.7,0.7-1.4,1.3-2.2,1.9H76.7L76.6,81.5L76.6,81.5z"
		/>
	<path id="XMLID_103_" class="st4" d="M50.5,107.3h49c-6.8,5.2-15.3,8.3-24.5,8.3S57.3,112.4,50.5,107.3"/>
	<polygon id="XMLID_102_" class="st3" points="49.4,46.2 56.8,46.7 57.2,41.5 69.7,42.3 69.4,47.5 84.3,48.4 84.7,43.3 97.2,44 
		96.8,49.2 87.3,48.6 104.3,49.7 102.8,74.2 47.8,70.7 	"/>
	<path id="XMLID_101_" class="st5" d="M64.5,53.2c3.4,0.3,6.1,3.2,5.9,6.7c-0.3,3.4-3.2,6.1-6.7,5.9c-3.4-0.3-6.1-3.2-5.9-6.7
		C58.1,55.6,61.1,52.9,64.5,53.2"/>
	<path id="XMLID_100_" class="st4" d="M64.3,56.7c1.5,0.1,2.6,1.4,2.6,2.9s-1.4,2.6-2.9,2.6c-1.5-0.1-2.6-1.4-2.6-2.9
		C61.5,57.8,62.8,56.6,64.3,56.7"/>
	<path id="XMLID_99_" class="st5" d="M88.5,54.7c3.4,0.3,6.1,3.2,5.9,6.7c-0.3,3.4-3.2,6.1-6.7,5.9c-3.4-0.3-6.1-3.2-5.9-6.7
		C82,57.1,85,54.5,88.5,54.7"/>
	<path id="XMLID_98_" class="st4" d="M88.2,58.2c1.5,0.1,2.6,1.4,2.6,2.9c-0.1,1.5-1.4,2.6-2.9,2.6c-1.5-0.1-2.6-1.4-2.6-2.9
		C85.4,59.3,86.7,58.2,88.2,58.2"/>
	
		<rect id="XMLID_155_" x="23.2" y="64.7" transform="matrix(0.7071 -0.7071 0.7071 0.7071 -47.7036 45.2144)" class="st6" width="15" height="31.1"/>
	
		<rect id="XMLID_97_" x="24.4" y="65.8" transform="matrix(0.7071 -0.7071 0.7071 0.7071 -47.7037 45.2143)" class="st3" width="12.8" height="28.8"/>
	<path id="XMLID_154_" class="st6" d="M11.5,72.5C5.2,72.5,0,67.3,0,60.9v-1.1h7.1v1.1c0,2.4,2,4.4,4.4,4.4s4.4-2,4.4-4.4
		c0-2.4-1.9-4.4-4.3-4.4h-1.1v-7.2h1.1c6.3,0,11.5,5.2,11.5,11.5C23,67.3,17.9,72.5,11.5,72.5z"/>
	<path id="XMLID_96_" class="st3" d="M11.5,50.6c5.7,0,10.4,4.7,10.4,10.4s-4.7,10.4-10.4,10.4S1.1,66.7,1.1,61H6
		c0,3,2.4,5.5,5.5,5.5S17,64,17,61c0-3-2.4-5.5-5.4-5.5C11.5,55.5,11.5,50.6,11.5,50.6z"/>
	
		<rect id="XMLID_153_" x="111.8" y="76.8" transform="matrix(0.7071 -0.7071 0.7071 0.7071 -30.3276 111.3839)" class="st6" width="15" height="31.1"/>
	
		<rect id="XMLID_95_" x="112.9" y="77.9" transform="matrix(0.7071 -0.7071 0.7071 0.7071 -30.3275 111.3839)" class="st4" width="12.8" height="28.8"/>
	<path id="XMLID_108_" class="st6" d="M138.5,123c-6.3,0-11.5-5.2-11.5-11.5c0-6.3,5.2-11.5,11.5-11.5c6.3,0,11.5,5.2,11.5,11.5v1.1
		h-7.1v-1.1c0-2.4-2-4.4-4.4-4.4s-4.4,2-4.4,4.4c0,2.4,2,4.4,4.4,4.4h1.1v7.2L138.5,123L138.5,123z"/>
	<path id="XMLID_94_" class="st4" d="M138.5,121.9c-5.7,0-10.4-4.7-10.4-10.4s4.7-10.4,10.4-10.4s10.4,4.7,10.4,10.4H144
		c0-3-2.4-5.5-5.5-5.5c-3,0-5.5,2.4-5.5,5.5s2.4,5.5,5.5,5.5L138.5,121.9L138.5,121.9z"/>
</g>
</svg>
